<svg width="1000" height="1000" viewBox="0 0 1000 1000" fill="none" xmlns="http://www.w3.org/2000/svg">
<rect width="1000" height="1000" rx="45" fill="#212121"/>
<path d="M944.098 500L500 722.049L55.9023 500L500 277.951L944.098 500Z" stroke="white" stroke-width="50"/>
<path d="M590 575C574.719 590.281 555.25 600.687 534.055 604.903C512.86 609.119 490.891 606.955 470.925 598.685C450.96 590.416 433.895 576.411 421.889 558.442C409.883 540.474 403.475 519.349 403.475 497.739C403.475 476.128 409.883 455.003 421.889 437.035C433.895 419.066 450.96 405.062 470.925 396.792C490.891 388.522 512.86 386.358 534.055 390.574C555.25 394.79 574.719 405.196 590 420.477L512.739 497.739L590 575Z" fill="white"/>
</svg>
